<svg viewBox="0 0 24 24" fill="none" xmlns="http://www.w3.org/2000/svg" id="Sort--Streamline-Solar" height="24" width="24">
  <desc>
    Sort Streamline Icon: https://streamlinehq.com
  </desc>
  <path fill-rule="evenodd" clip-rule="evenodd" d="M3.46447 20.5355C4.92893 22 7.28595 22 12 22c4.714 0 7.0711 0 8.5355 -1.4645C22 19.0711 22 16.714 22 12c0 -4.71405 0 -7.07107 -1.4645 -8.53553C19.0711 2 16.714 2 12 2 7.28595 2 4.92893 2 3.46447 3.46447 2 4.92893 2 7.28595 2 12c0 4.714 0 7.0711 1.46447 8.5355ZM14.75 16c0 0.4142 -0.3358 0.75 -0.75 0.75h-4c-0.41421 0 -0.75 -0.3358 -0.75 -0.75s0.33579 -0.75 0.75 -0.75h4c0.4142 0 0.75 0.3358 0.75 0.75ZM16 12.75c0.4142 0 0.75 -0.3358 0.75 -0.75s-0.3358 -0.75 -0.75 -0.75H8c-0.41421 0 -0.75 0.3358 -0.75 0.75s0.33579 0.75 0.75 0.75h8ZM18.75 8c0 0.41421 -0.3358 0.75 -0.75 0.75H6c-0.41421 0 -0.75 -0.33579 -0.75 -0.75s0.33579 -0.75 0.75 -0.75h12c0.4142 0 0.75 0.33579 0.75 0.75Z" fill="#000000" stroke-width="1"></path>
</svg>